<svg width="22" height="23" viewBox="0 0 22 23" fill="none" xmlns="http://www.w3.org/2000/svg">
<path d="M20.44 11.0499L11.25 20.2399C10.1242 21.3658 8.5972 21.9983 7.00502 21.9983C5.41283 21.9983 3.88586 21.3658 2.76002 20.2399C1.63417 19.1141 1.00168 17.5871 1.00168 15.9949C1.00168 14.4027 1.63417 12.8758 2.76002 11.7499L11.95 2.55992C12.7006 1.80936 13.7186 1.3877 14.78 1.3877C15.8415 1.3877 16.8595 1.80936 17.61 2.55992C18.3606 3.31048 18.7822 4.32846 18.7822 5.38992C18.7822 6.45138 18.3606 7.46936 17.61 8.21992L8.41002 17.4099C8.03473 17.7852 7.52574 17.996 6.99502 17.996C6.46429 17.996 5.9553 17.7852 5.58002 17.4099C5.20473 17.0346 4.9939 16.5256 4.9939 15.9949C4.9939 15.4642 5.20473 14.9552 5.58002 14.5799L14.07 6.09992" stroke="black" stroke-width="2" stroke-linecap="round" stroke-linejoin="round"/>
</svg>
