<svg width="25" height="24" viewBox="0 0 25 24" fill="none" xmlns="http://www.w3.org/2000/svg">
<circle cx="12.3845" cy="12" r="12" fill="white"/>
<path d="M12.3845 6.46155C10.8799 6.46155 10.6921 6.46847 10.1013 6.49478C9.51145 6.52247 9.10992 6.61524 8.75684 6.75232C8.39268 6.89355 8.08345 7.08324 7.77561 7.39109C7.46776 7.69893 7.27761 8.0077 7.13684 8.37232C6.99976 8.72539 6.90653 9.12693 6.8793 9.71678C6.85161 10.3075 6.84607 10.4954 6.84607 12C6.84607 13.5046 6.85299 13.6925 6.8793 14.2832C6.90699 14.8726 6.99976 15.2746 7.13684 15.6277C7.27807 15.9914 7.46776 16.3011 7.77561 16.6089C8.08345 16.9163 8.39222 17.1069 8.75684 17.2477C9.11038 17.3843 9.51192 17.478 10.1013 17.5052C10.6921 17.5329 10.8799 17.5385 12.3845 17.5385C13.8891 17.5385 14.077 17.5315 14.6678 17.5052C15.2571 17.4775 15.6591 17.3843 16.0122 17.2477C16.3759 17.1065 16.6856 16.9163 16.9935 16.6089C17.3008 16.3011 17.4915 15.9928 17.6322 15.6277C17.7688 15.2746 17.8625 14.8726 17.8898 14.2832C17.9175 13.6925 17.923 13.5046 17.923 12C17.923 10.4954 17.9161 10.3075 17.8898 9.71678C17.8621 9.12739 17.7688 8.72493 17.6322 8.37232C17.491 8.00816 17.3008 7.69893 16.9935 7.39109C16.6856 7.08324 16.3773 6.89309 16.0122 6.75232C15.6591 6.61524 15.2571 6.52201 14.6678 6.49478C14.077 6.46709 13.8891 6.46155 12.3845 6.46155ZM12.3845 7.45847C13.8628 7.45847 14.0391 7.46586 14.623 7.49124C15.163 7.51662 15.4561 7.60616 15.6508 7.68278C15.9102 7.78293 16.0939 7.90293 16.2887 8.09632C16.4821 8.29016 16.6021 8.47432 16.7022 8.7337C16.7779 8.92847 16.8684 9.22155 16.8928 9.76155C16.9191 10.3459 16.9251 10.5212 16.9251 12C16.9251 13.4788 16.9182 13.6546 16.891 14.2385C16.8628 14.7785 16.7728 15.0715 16.6967 15.2663C16.5933 15.5257 16.4756 15.7094 16.2818 15.9042C16.0884 16.0975 15.9015 16.2175 15.6448 16.3177C15.451 16.3934 15.1533 16.4839 14.6133 16.5083C14.0253 16.5346 13.8522 16.5406 12.3707 16.5406C10.8887 16.5406 10.7156 16.5337 10.1281 16.5065C9.58761 16.4783 9.28992 16.3883 9.09607 16.3122C8.83345 16.2088 8.65299 16.0911 8.45961 15.8972C8.2653 15.7039 8.14115 15.5169 8.04422 15.2603C7.96807 15.0665 7.87853 14.7688 7.85038 14.2288C7.82961 13.6472 7.82222 13.4677 7.82222 11.9931C7.82222 10.518 7.82961 10.338 7.85038 9.74955C7.87853 9.20955 7.96807 8.91232 8.04422 8.71847C8.14115 8.45539 8.2653 8.27539 8.45961 8.08109C8.65299 7.8877 8.83345 7.76309 9.09607 7.66662C9.28992 7.59001 9.58115 7.50001 10.1211 7.47232C10.7096 7.45155 10.8827 7.44462 12.3638 7.44462L12.3845 7.45847ZM12.3845 9.15601C10.813 9.15601 9.54053 10.4299 9.54053 12C9.54053 13.5715 10.8144 14.844 12.3845 14.844C13.9561 14.844 15.2285 13.5702 15.2285 12C15.2285 10.4285 13.9547 9.15601 12.3845 9.15601ZM12.3845 13.8462C11.3645 13.8462 10.5384 13.02 10.5384 12C10.5384 10.98 11.3645 10.1539 12.3845 10.1539C13.4045 10.1539 14.2307 10.98 14.2307 12C14.2307 13.02 13.4045 13.8462 12.3845 13.8462ZM16.0058 9.04386C16.0058 9.41078 15.7076 9.70847 15.3411 9.70847C14.9742 9.70847 14.6765 9.41032 14.6765 9.04386C14.6765 8.67739 14.9747 8.3797 15.3411 8.3797C15.7071 8.37924 16.0058 8.67739 16.0058 9.04386Z" fill="#25201D"/>
</svg>
