<svg width="25" height="24" viewBox="0 0 25 24" fill="none" xmlns="http://www.w3.org/2000/svg">
<circle cx="12.7691" cy="12" r="12" fill="white"/>
<path d="M19.2072 8.5755C18.7647 8.77491 18.2922 8.91076 17.7947 8.97279C18.3017 8.65957 18.6917 8.1659 18.8762 7.57688C18.4007 7.8614 17.8737 8.0685 17.3127 8.18384C16.8648 7.69223 16.2263 7.38464 15.5173 7.38464C14.1589 7.38464 13.0574 8.51398 13.0574 9.90528C13.0574 10.1052 13.0799 10.2974 13.1209 10.4815C11.076 10.3825 9.26357 9.37572 8.05062 7.85371C7.83713 8.22383 7.71763 8.65393 7.71763 9.12248C7.71763 9.99909 8.15261 10.7696 8.81159 11.2222C8.4081 11.2089 8.02862 11.0951 7.69763 10.9065V10.9377C7.69763 12.1604 8.5441 13.18 9.67055 13.4122C9.46406 13.4691 9.24607 13.4999 9.02258 13.4999C8.86558 13.4999 8.71509 13.4845 8.5646 13.4558C8.88008 14.457 9.78705 15.187 10.8665 15.2075C10.0265 15.8836 8.96208 16.2866 7.81563 16.2866C7.62064 16.2866 7.42614 16.2748 7.23065 16.2522C8.32511 16.9668 9.61455 17.3846 11.009 17.3846C15.5358 17.3846 18.0082 13.5419 18.0082 10.2149C18.0082 10.1078 18.0082 9.9996 18.0007 9.89195C18.4812 9.53874 18.9007 9.09224 19.2307 8.58575L19.2072 8.5755Z" fill="#25201D"/>
</svg>
