<svg width="150" height="35" viewBox="0 0 150 35" fill="none" xmlns="http://www.w3.org/2000/svg">
<g clip-path="url(#clip0_1_27)">
<path d="M17.2243 34.9986C26.737 34.9986 34.4486 27.1639 34.4486 17.4993C34.4486 7.83471 26.737 0 17.2243 0C7.71159 0 0 7.83471 0 17.4993C0 27.1639 7.71159 34.9986 17.2243 34.9986Z" fill="url(#paint0_linear_1_27)"/>
<path d="M4.79028 9.97557L14.3735 5.93652L17.9343 15.3356L22.4988 25.8333L19.0265 31.8428L13.2759 30.7346L4.79028 9.97557Z" fill="#242120"/>
<path d="M15.7336 3.42432L26.0636 4.12075L24.679 28.5264L19.2386 32.0417L14.2606 27.8852L15.7336 3.42432Z" fill="white"/>
<path d="M19.4358 30.1786C19.9136 30.1786 20.3008 29.7944 20.3008 29.3205C20.3008 28.8466 19.9136 28.4624 19.4358 28.4624C18.9581 28.4624 18.5708 28.8466 18.5708 29.3205C18.5708 29.7944 18.9581 30.1786 19.4358 30.1786Z" fill="#242120"/>
<path d="M45.7918 27.3974C44.7753 25.2786 43.7326 22.8466 42.6636 20.1014C41.5477 17.205 40.5758 14.2534 39.7516 11.2578H43.6728C43.8958 12.1634 44.1551 13.1352 44.4507 14.1734C44.7463 15.2116 45.0614 16.2503 45.396 17.2894C45.7306 18.3267 46.0761 19.3345 46.4324 20.3128C46.7888 21.2912 47.1193 22.17 47.4239 22.9494C47.7277 22.1682 48.0527 21.2893 48.3991 20.3128C48.7455 19.3364 49.0855 18.3286 49.4192 17.2894C49.7547 16.2503 50.0752 15.2116 50.3808 14.1734C50.6863 13.1352 50.9502 12.1634 51.1724 11.2578H54.9698C54.146 14.2534 53.1746 17.205 52.0591 20.1014C50.9901 22.8476 49.9474 25.2796 48.9309 27.3974H45.7918Z" fill="#242120"/>
<path d="M62.9549 10.8623C64.169 10.8623 65.1914 11.0162 66.0219 11.3239C66.7767 11.5861 67.4573 12.0309 68.005 12.62C68.5157 13.199 68.8819 13.8942 69.0726 14.6471C69.2932 15.4974 69.4007 16.3739 69.3923 17.2532V27.0324C68.8247 27.1567 67.9696 27.306 66.8271 27.4801C65.5446 27.665 64.2503 27.7528 62.9549 27.7426C62.077 27.7511 61.2009 27.6584 60.3435 27.4662C59.6177 27.31 58.9306 27.0059 58.3238 26.5722C57.7636 26.1565 57.3147 25.605 57.0181 24.9679C56.7034 24.3102 56.5466 23.4977 56.5475 22.5304C56.5475 21.6092 56.7243 20.8262 57.0779 20.1813C57.4266 19.5503 57.9221 19.0157 58.521 18.624C59.1665 18.2069 59.882 17.9142 60.6319 17.7604C61.4549 17.5825 62.2943 17.4945 63.1358 17.4978C63.5622 17.4993 63.9881 17.5251 64.4116 17.5752C64.8924 17.6326 65.3693 17.7199 65.8397 17.8364V17.2173C65.8419 16.801 65.7907 16.3862 65.6874 15.9834C65.5918 15.5894 65.4019 15.2255 65.1344 14.9242C64.867 14.6228 64.5304 14.3933 64.1545 14.2561C63.6525 14.077 63.1223 13.9931 62.5904 14.0087C61.8073 14.0035 61.0252 14.0655 60.2524 14.1939C59.6641 14.2864 59.0848 14.4307 58.521 14.625L58.0654 11.6071C58.7331 11.3941 59.4149 11.2292 60.1055 11.1138C61.0461 10.9443 61.9996 10.8601 62.9549 10.8623ZM63.2596 24.7759C64.393 24.7759 65.2544 24.7141 65.8438 24.5907V20.4508C65.554 20.3709 65.2596 20.309 64.9624 20.2656C64.5401 20.2015 64.1136 20.1705 63.6866 20.173C63.277 20.1743 62.8679 20.2052 62.4626 20.2656C62.0736 20.3199 61.6952 20.4345 61.3405 20.6055C61.0168 20.7603 60.7387 20.9985 60.5339 21.2964C60.3216 21.6313 60.2161 22.0246 60.232 22.4226C60.232 23.307 60.504 23.9191 61.0481 24.2591C61.5921 24.599 62.3293 24.7712 63.2596 24.7759Z" fill="#242120"/>
<path d="M77.863 24.7136C78.835 24.7136 79.5441 24.5952 79.9902 24.3585C80.4363 24.1217 80.6589 23.7159 80.658 23.1411C80.658 22.6049 80.42 22.1628 79.944 21.8145C79.468 21.4663 78.6832 21.0854 77.5897 20.6718C76.964 20.4437 76.3511 20.1812 75.7535 19.8855C75.231 19.6321 74.7454 19.3066 74.3105 18.9183C73.9042 18.5436 73.5799 18.0865 73.3584 17.5765C73.1086 16.964 72.9894 16.3047 73.0088 15.642C73.0088 14.1625 73.5456 12.9953 74.6192 12.1405C75.6928 11.2856 77.1499 10.8591 78.9906 10.8609C79.8869 10.8584 80.7812 10.9463 81.6604 11.1234C82.3096 11.2442 82.9488 11.4147 83.5727 11.6333L82.9049 14.6567C82.4046 14.4399 81.8861 14.2693 81.3558 14.1468C80.6386 13.9835 79.905 13.9061 79.1701 13.9161C78.4211 13.9161 77.8136 14.0446 77.3476 14.3016C77.13 14.4093 76.9481 14.579 76.8239 14.7901C76.6998 15.0011 76.6388 15.2443 76.6485 15.49C76.6435 15.7334 76.6899 15.9751 76.7845 16.1988C76.8918 16.4261 77.0536 16.6224 77.2551 16.7695C77.5295 16.9754 77.8244 17.1514 78.1351 17.2946C78.571 17.4983 79.0173 17.6782 79.472 17.8335C80.2286 18.1116 80.9684 18.4345 81.6876 18.8008C82.2404 19.0802 82.7478 19.4442 83.1919 19.88C83.5772 20.2667 83.8728 20.736 84.0569 21.2535C84.2514 21.8498 84.3434 22.4757 84.3289 23.1038C84.3289 24.6459 83.7672 25.813 82.6438 26.6053C81.5203 27.3975 79.9159 27.7937 77.8304 27.7937C76.4349 27.7937 75.3115 27.6753 74.4601 27.4385C73.8534 27.281 73.2554 27.0905 72.6688 26.8678L73.3094 23.7574C73.9489 24.0145 74.6034 24.2309 75.2693 24.4054C76.1171 24.6219 76.989 24.7255 77.863 24.7136Z" fill="#242120"/>
<path d="M91.8612 6.54268C91.8612 7.24326 91.6382 7.79737 91.1934 8.20915C90.7654 8.61364 90.2001 8.83445 89.6157 8.82544C89.0209 8.83816 88.4441 8.61743 88.0053 8.20915C87.5592 7.79461 87.3375 7.24188 87.3375 6.54268C87.3375 5.84348 87.5592 5.2576 88.0053 4.84581C88.4441 4.43754 89.0209 4.21681 89.6157 4.22952C90.2 4.22123 90.765 4.44194 91.1934 4.84581C91.6386 5.2576 91.8612 5.82322 91.8612 6.54268ZM91.4668 27.397H87.7945V11.263H91.4668V27.397Z" fill="#242120"/>
<path d="M95.9604 7.00594L99.6327 6.38965V11.2633H105.28V14.3793H99.6354V20.9498C99.6354 22.246 99.8376 23.1713 100.242 23.7259C100.646 24.2805 101.335 24.5568 102.307 24.555C102.906 24.5632 103.503 24.4903 104.083 24.338C104.498 24.2272 104.907 24.0934 105.307 23.9373L105.914 26.8986C105.369 27.1247 104.812 27.3154 104.243 27.4692C103.453 27.6809 102.638 27.7837 101.821 27.7746C100.687 27.7746 99.7402 27.6199 98.9812 27.3103C98.2706 27.0384 97.6465 26.5745 97.1764 25.9686C96.7101 25.3395 96.388 24.6124 96.2338 23.8406C96.0416 22.9023 95.9504 21.9455 95.9618 20.9871L95.9604 7.00594Z" fill="#242120"/>
<path d="M112.935 6.54268C112.935 7.24326 112.712 7.79737 112.267 8.20915C111.839 8.61364 111.274 8.83445 110.689 8.82544C110.095 8.8378 109.518 8.6171 109.08 8.20915C108.634 7.79461 108.412 7.24188 108.412 6.54268C108.412 5.84348 108.634 5.2576 109.08 4.84581C109.519 4.43754 110.096 4.21681 110.69 4.22952C111.275 4.22123 111.84 4.44194 112.268 4.84581C112.712 5.2576 112.935 5.82322 112.935 6.54268ZM112.54 27.397H108.868V11.263H112.54V27.397Z" fill="#242120"/>
<path d="M117.589 26.2545C117.595 26.4381 117.563 26.6209 117.494 26.7908C117.426 26.9607 117.322 27.1138 117.19 27.2397C116.926 27.4841 116.582 27.6196 116.225 27.6196C115.868 27.6196 115.524 27.4841 115.26 27.2397C115.13 27.1128 115.028 26.9594 114.961 26.7896C114.893 26.6198 114.862 26.4375 114.869 26.2545C114.863 26.0704 114.894 25.887 114.962 25.716C115.029 25.545 115.131 25.39 115.26 25.261C115.522 25.0115 115.867 24.8726 116.225 24.8726C116.584 24.8726 116.929 25.0115 117.19 25.261C117.321 25.389 117.425 25.5436 117.493 25.7148C117.562 25.8859 117.594 26.0698 117.589 26.2545Z" fill="#EE3C24"/>
<path d="M119.307 22.8884C119.302 22.2506 119.405 21.6167 119.613 21.0147C119.802 20.4564 120.1 19.9424 120.489 19.503C120.875 19.0727 121.347 18.7312 121.873 18.5012C122.455 18.2516 123.081 18.1278 123.712 18.1378C124.527 18.1336 125.336 18.2923 126.091 18.6048L125.649 20.3127C125.388 20.2017 125.117 20.1152 124.841 20.0543C124.526 19.9836 124.203 19.9489 123.881 19.9507C123.075 19.9507 122.463 20.2068 122.044 20.719C121.626 21.2312 121.416 21.9539 121.415 22.8871C121.415 23.7852 121.613 24.4964 122.01 25.0206C122.408 25.5448 123.076 25.8068 124.017 25.8068C124.365 25.8072 124.713 25.7725 125.054 25.7032C125.356 25.6455 125.652 25.5589 125.938 25.4448L126.228 27.1721C125.899 27.3192 125.553 27.4236 125.199 27.483C124.731 27.5762 124.255 27.6225 123.779 27.6212C123.102 27.636 122.428 27.5158 121.797 27.2674C121.265 27.051 120.788 26.714 120.403 26.2822C120.026 25.8465 119.745 25.3339 119.579 24.7788C119.393 24.1666 119.301 23.529 119.307 22.8884Z" fill="#EE3C24"/>
<path d="M135.682 22.872C135.691 23.5357 135.588 24.1961 135.378 24.8245C135.193 25.3794 134.899 25.8904 134.514 26.3266C134.137 26.7439 133.676 27.0738 133.162 27.2938C132.61 27.5293 132.017 27.6469 131.418 27.6393C130.823 27.6474 130.232 27.5298 129.684 27.2938C129.174 27.0719 128.716 26.7422 128.34 26.3266C127.954 25.8897 127.657 25.3791 127.466 24.8245C127.249 24.1975 127.143 23.5366 127.152 22.872C127.142 22.2106 127.249 21.5528 127.466 20.9292C127.658 20.3753 127.959 19.8667 128.35 19.4341C128.728 19.0207 129.188 18.6938 129.701 18.4751C130.245 18.2464 130.829 18.1317 131.418 18.1379C132.01 18.132 132.597 18.2466 133.144 18.4751C133.661 18.6901 134.125 19.0174 134.504 19.4341C134.89 19.869 135.187 20.3771 135.379 20.9292C135.592 21.5535 135.695 22.2113 135.682 22.872ZM133.575 22.872C133.575 21.9739 133.385 21.2627 133.006 20.7385C132.816 20.4935 132.575 20.2953 132.299 20.159C132.024 20.0228 131.721 19.9519 131.415 19.9519C131.108 19.9519 130.806 20.0228 130.53 20.159C130.255 20.2953 130.013 20.4935 129.824 20.7385C129.445 21.2618 129.255 21.9729 129.254 22.872C129.254 23.7711 129.443 24.4911 129.824 25.0318C130.012 25.279 130.253 25.4792 130.529 25.6169C130.804 25.7546 131.108 25.8262 131.415 25.8262C131.722 25.8262 132.025 25.7546 132.301 25.6169C132.577 25.4792 132.818 25.279 133.006 25.0318C133.385 24.5012 133.575 23.7813 133.575 22.872Z" fill="#EE3C24"/>
<path d="M142.874 22.6466C142.874 21.7033 142.758 21.0211 142.526 20.6002C142.294 20.1792 141.86 19.9687 141.225 19.9687C140.975 19.9705 140.725 19.9881 140.477 20.0212C140.205 20.0557 140.001 20.0847 139.865 20.1068V27.3973H137.807V18.6546C138.319 18.5147 138.838 18.4049 139.363 18.3257C140.035 18.2206 140.714 18.1688 141.395 18.1709C141.907 18.1541 142.417 18.2362 142.899 18.4127C143.264 18.5566 143.597 18.7742 143.877 19.0525C144.029 18.9434 144.188 18.8451 144.353 18.7582C144.562 18.6484 144.778 18.5533 145 18.4735C145.247 18.3839 145.5 18.3119 145.757 18.258C146.022 18.2001 146.293 18.1709 146.564 18.1709C147.149 18.1508 147.731 18.2539 148.274 18.4735C148.694 18.653 149.058 18.9454 149.327 19.3192C149.596 19.7126 149.776 20.1612 149.856 20.6333C149.955 21.189 150.004 21.7529 150 22.3177V27.3959H147.942V22.6466C147.942 21.7033 147.829 21.0211 147.602 20.6002C147.376 20.1792 146.939 19.9687 146.292 19.9687C145.974 19.967 145.658 20.0227 145.358 20.1331C145.125 20.2117 144.902 20.3189 144.694 20.4523C144.787 20.7504 144.85 21.0574 144.882 21.3684C144.916 21.7128 144.933 22.0587 144.932 22.4048V27.3973H142.874V22.6466Z" fill="#EE3C24"/>
</g>
<defs>
<linearGradient id="paint0_linear_1_27" x1="23.1176" y1="33.9484" x2="10.9987" y2="1.17495" gradientUnits="userSpaceOnUse">
<stop stop-color="#ED3424"/>
<stop offset="1" stop-color="#F4A81C"/>
</linearGradient>
<clipPath id="clip0_1_27">
<rect width="150" height="35" fill="white"/>
</clipPath>
</defs>
</svg>
